<svg width="61" height="60" viewBox="0 0 61 60" fill="none" xmlns="http://www.w3.org/2000/svg">
	<path d="M17.98 17.5H12.98C11.6539 17.5 10.3821 18.0268 9.44445 18.9645C8.50676 19.9021 7.97998 21.1739 7.97998 22.5V42.5H12.98V32.5H17.98V42.5H22.98V22.5C22.98 21.1739 22.4532 19.9021 21.5155 18.9645C20.5778 18.0268 19.3061 17.5 17.98 17.5ZM17.98 27.5H12.98V22.5H17.98M35.48 17.5H25.48V42.5H30.48V32.5H35.48C36.8061 32.5 38.0778 31.9732 39.0155 31.0355C39.9532 30.0979 40.48 28.8261 40.48 27.5V22.5C40.48 21.1739 39.9532 19.9021 39.0155 18.9645C38.0778 18.0268 36.8061 17.5 35.48 17.5ZM35.48 27.5H30.48V22.5H35.48M50.48 22.5V37.5H52.98V42.5H42.98V37.5H45.48V22.5H42.98V17.5H52.98V22.5H50.48Z" fill="#FFD233" />
</svg>
