<svg width="148" height="148" viewBox="0 0 148 148" fill="none" xmlns="http://www.w3.org/2000/svg">
	<path d="M124.875 60.1249H59.0208L121.406 43.6542C121.997 43.4986 122.551 43.2276 123.036 42.8568C123.521 42.486 123.928 42.0229 124.233 41.494C124.539 40.9651 124.736 40.381 124.815 39.7754C124.893 39.1697 124.851 38.5546 124.69 37.9654L119.973 20.6217C119.323 18.2883 117.781 16.3046 115.679 15.1003C113.578 13.8959 111.087 13.5678 108.745 14.1871L20.7027 37.4278C19.5304 37.7321 18.4306 38.2672 17.4677 39.0018C16.5048 39.7364 15.6981 40.6557 15.0949 41.7059C14.4883 42.7432 14.0963 43.8919 13.9424 45.0836C13.7885 46.2754 13.8757 47.486 14.1988 48.6434L18.5 64.4956V115.625C18.5 118.078 19.4746 120.431 21.2093 122.166C22.944 123.9 25.2968 124.875 27.75 124.875H120.25C122.703 124.875 125.056 123.9 126.791 122.166C128.525 120.431 129.5 118.078 129.5 115.625V64.7499C129.5 63.5233 129.013 62.3469 128.145 61.4796C127.278 60.6122 126.102 60.1249 124.875 60.1249ZM111.093 23.1249L114.561 35.8842L101.484 39.3529L85.2272 29.9642L111.093 23.1249ZM72.5374 33.2999L88.7942 42.6887L67.4383 48.3254L51.1814 38.9482L72.5374 33.2999ZM26.6342 59.0959L23.1655 46.3309L38.4858 42.284L54.7427 51.6843L26.6342 59.0959ZM120.25 115.625H27.75V69.3749H120.25V115.625Z" fill="white" />
</svg>
