<svg width="148" height="148" viewBox="0 0 148 148" fill="none" xmlns="http://www.w3.org/2000/svg">
	<path d="M82.0042 80C78.7153 75.375 74.3739 72.1622 68.9802 70.3615C63.5864 68.5608 58.0097 67.6625 52.25 67.6667C46.4944 67.6667 40.9177 68.567 35.5198 70.3677C30.1219 72.1683 25.7806 75.3791 22.4958 80H82.0042ZM6 92.3333C6 81.1305 10.6764 72.1642 20.0292 65.4343C29.3819 58.7044 40.1222 55.3374 52.25 55.3333C64.3778 55.3333 75.118 58.7003 84.4708 65.4343C93.8236 72.1683 98.5 81.1347 98.5 92.3333H6ZM6 117V104.667H98.5V117H6ZM110.833 141.667V129.333H119.467L128.1 43H69.2083L67.6667 30.6667H98.5V6H110.833V30.6667H141.667L130.567 141.667H110.833ZM6 141.667V129.333H98.5V141.667H6Z" fill="white" />
</svg>
