<svg width="60" height="60" viewBox="0 0 60 60" fill="none" xmlns="http://www.w3.org/2000/svg">
	<g clip-path="url(#clip0_14_146)">
		<path d="M60 30.75C60 37.452 58.092 43.479 54.276 48.831C50.463 54.183 45.534 57.885 39.492 59.94C38.79 60.075 38.274 59.982 37.95 59.661C37.7901 59.5055 37.6642 59.3186 37.58 59.1121C37.4959 58.9056 37.4554 58.6839 37.461 58.461V50.01C37.461 47.421 36.783 45.525 35.43 44.325C36.7817 44.1894 38.1207 43.9486 39.435 43.605C40.617 43.284 41.841 42.765 43.104 42.045C44.3183 41.3656 45.3923 40.4615 46.269 39.381C47.115 38.325 47.805 36.924 48.339 35.175C48.873 33.426 49.14 31.419 49.14 29.151C49.14 25.92 48.111 23.169 46.056 20.901C47.016 18.471 46.914 15.75 45.741 12.732C45.012 12.492 43.959 12.642 42.579 13.173C41.3272 13.6432 40.1237 14.233 38.985 14.934L37.5 15.894C35.0609 15.1986 32.5363 14.8492 30 14.856C27.4636 14.8502 24.9389 15.2006 22.5 15.897C21.9574 15.5212 21.4042 15.1611 20.841 14.817C20.151 14.388 19.062 13.875 17.577 13.275C16.095 12.675 14.973 12.495 14.217 12.735C13.074 15.75 12.981 18.471 13.947 20.901C11.889 23.169 10.857 25.92 10.857 29.151C10.857 31.419 11.127 33.42 11.661 35.157C12.195 36.891 12.879 38.292 13.71 39.36C14.5717 40.4518 15.64 41.3631 16.854 42.042C18.117 42.762 19.344 43.284 20.526 43.602C21.711 43.926 23.046 44.166 24.531 44.325C23.49 45.285 22.851 46.662 22.617 48.45C22.0577 48.721 21.4673 48.9225 20.859 49.05C20.126 49.1939 19.38 49.2612 18.633 49.251C17.772 49.251 16.923 48.963 16.074 48.39C15.228 47.814 14.505 46.98 13.905 45.888C13.4363 45.0621 12.7897 44.351 12.012 43.806C11.244 43.272 10.599 42.951 10.077 42.846L9.297 42.726C8.751 42.726 8.373 42.786 8.163 42.906C7.953 43.026 7.893 43.176 7.968 43.365C8.05623 43.5685 8.17456 43.7576 8.319 43.926C8.46886 44.1061 8.64013 44.2673 8.829 44.406L9.099 44.604C9.675 44.874 10.239 45.381 10.8 46.128C11.361 46.875 11.772 47.556 12.03 48.168L12.42 49.089C12.759 50.103 13.332 50.925 14.142 51.552C14.949 52.182 15.822 52.581 16.758 52.752C17.694 52.926 18.6 53.022 19.473 53.034C20.343 53.046 21.069 53.001 21.642 52.893L22.539 52.734C22.539 53.748 22.545 54.936 22.56 56.298L22.578 58.458C22.578 58.938 22.41 59.34 22.068 59.658C21.732 59.982 21.21 60.075 20.508 59.94C14.466 57.885 9.537 54.18 5.724 48.831C1.908 43.479 0 37.452 0 30.75C0 25.17 1.341 20.028 4.023 15.315C6.61945 10.6925 10.3852 6.83356 14.943 4.12501C19.4865 1.38995 24.6969 -0.0375032 30 9.47004e-06C35.3041 -0.0380565 40.5156 1.38941 45.06 4.12501C49.6166 6.83398 53.3814 10.6929 55.977 15.315C58.659 20.025 60 25.173 60 30.75Z" fill="white" />
	</g>
	<defs>
		<clipPath id="clip0_14_146">
			<rect width="60" height="60" fill="white" />
		</clipPath>
	</defs>
</svg>
