<svg width="175" height="45" viewBox="0 0 175 45" fill="none" xmlns="http://www.w3.org/2000/svg">
	<path d="M21.48 44.4C21.1067 44.4 20.8133 44.2933 20.6 44.08C20.44 43.92 20.2 43.9467 19.88 44.16C19.72 44.1067 19.5067 44.0267 19.24 43.92C19.0267 43.8667 18.84 43.7867 18.68 43.68L17.24 42.64C16.8667 42.3733 16.4667 42.1067 16.04 41.84C15.6667 41.6267 15.3467 41.4133 15.08 41.2L14.84 40.88C13.72 40.9333 12.5467 40.72 11.32 40.24C10.1467 39.8133 8.94667 39.0667 7.72 38C7.4 37.9467 7.13333 37.76 6.92 37.44C6.70667 37.0667 6.49333 36.7733 6.28 36.56C5.90667 36.5067 5.66667 36.3733 5.56 36.16C5.50667 35.9467 5.42667 35.68 5.32 35.36C5.26667 35.36 5.21333 35.3333 5.16 35.28C5.16 35.2267 5.16 35.2 5.16 35.2L4.76 34.88V34.8C4.54667 34.3733 4.41333 34.08 4.36 33.92C4.30667 33.76 4.09333 33.52 3.72 33.2C3.61333 33.0933 3.53333 32.9333 3.48 32.72C3.42667 32.4533 3.34667 32.2667 3.24 32.16C2.6 30.7733 2.04 29.3867 1.56 28C1.08 26.6133 0.84 25.1733 0.84 23.68C0.84 23.2 0.973333 22.8533 1.24 22.64C1.50667 22.3733 1.8 22.24 2.12 22.24C2.81333 22.24 3.26667 22.5867 3.48 23.28C3.58667 23.44 3.69333 23.6533 3.8 23.92C3.90667 24.1333 3.98667 24.3467 4.04 24.56L4.12 25.28C4.17333 25.7067 4.38667 26.3733 4.76 27.28C5.18667 28.1867 5.66667 29.0933 6.2 30C6.78667 30.9067 7.34667 31.6 7.88 32.08L9.08 33.84C9.34667 34.48 9.72 35.0933 10.2 35.68C10.68 36.2133 11.1067 36.6133 11.48 36.88L14.12 39.28L14.84 39.92C16.2267 39.92 17.56 39.28 18.84 38C20.0667 36.88 21.1333 35.4933 22.04 33.84C22.9467 32.1867 23.7467 30.4533 24.44 28.64C25.1867 26.8267 25.8533 25.12 26.44 23.52L26.76 23.12C26.92 22.8 27.0267 22.4 27.08 21.92C27.1333 21.44 27.1867 21.0133 27.24 20.64C27.5067 20.32 27.7467 19.9467 27.96 19.52C28.1733 19.0933 28.2533 18.6667 28.2 18.24L28.28 17.92C28.44 17.8667 28.44 17.7867 28.28 17.68C28.12 17.5733 28.2 17.4933 28.52 17.44C28.84 16.9067 29.0267 16.3467 29.08 15.76C29.1333 15.1733 29.24 14.7467 29.4 14.48C29.56 14.2667 29.6933 14.0533 29.8 13.84C29.96 13.6267 29.9867 13.36 29.88 13.04C29.9333 12.8267 30.0933 12.3467 30.36 11.6C30.6267 10.8533 30.92 10.0533 31.24 9.2C31.6133 8.29333 31.9067 7.52 32.12 6.88C32.3867 6.18666 32.52 5.81333 32.52 5.76C32.5733 5.54667 32.5733 5.33333 32.52 5.12C32.52 4.85333 32.5467 4.58667 32.6 4.32L32.84 3.44C31.6667 3.49333 30.4667 3.62666 29.24 3.84C28.0133 4 26.84 4.18666 25.72 4.4C25.1333 4.50667 24.84 4.53333 24.84 4.48C24.8933 4.37333 24.9733 4.26667 25.08 4.16C25.24 4 25.1867 3.92 24.92 3.92H24.68C24.3067 3.92 23.96 4 23.64 4.16C23.3733 4.26667 23.24 4.37333 23.24 4.48C23.1867 4.69333 22.7867 4.88 22.04 5.04C21.3467 5.2 20.9467 5.28 20.84 5.28C20.1467 5.38667 19.5067 5.49333 18.92 5.6C18.3333 5.70666 17.8 5.78666 17.32 5.84C17.16 5.89333 17 5.78666 16.84 5.52C16.7333 5.25333 16.68 4.96 16.68 4.64C16.68 4.32 16.7333 4.02667 16.84 3.76C17 3.44 17.1333 3.22666 17.24 3.12C17.24 3.06667 17.2933 3.04 17.4 3.04H17.48L19.56 2.8C19.9867 2.69333 20.5467 2.64 21.24 2.64C21.9867 2.64 22.6267 2.53333 23.16 2.32L26.36 2.16C27 2.10666 27.7467 2.08 28.6 2.08C29.4533 2.02666 30.1733 2 30.76 2C31.0267 2 31.1333 2.02666 31.08 2.08C31.0267 2.13333 31.1067 2.16 31.32 2.16C31.64 2.16 31.8533 2.13333 31.96 2.08C32.0667 2.02666 32.3067 2 32.68 2H33.4L33.56 1.76C33.8267 1.33333 34.12 1.01333 34.44 0.799999C34.76 0.586665 35.2133 0.506665 35.8 0.559998C36.3867 0.559998 36.8133 0.799998 37.08 1.28C37.1333 1.33333 37.1333 1.41333 37.08 1.52C37.08 1.57333 37.1067 1.62666 37.16 1.68C37.16 1.73333 37.2133 1.92 37.32 2.24C37.4267 2.24 37.5333 2.26666 37.64 2.32C37.8 2.32 37.9067 2.32 37.96 2.32C38.0667 2.37333 38.0933 2.42666 38.04 2.48C37.9867 2.53333 37.9867 2.58667 38.04 2.64C38.2 2.69333 38.3067 2.69333 38.36 2.64C38.4667 2.53333 38.6 2.48 38.76 2.48C39.08 2.48 39.2933 2.53333 39.4 2.64L40.36 2.88C40.7333 3.04 40.92 3.28 40.92 3.6C40.92 3.86667 40.7333 3.94667 40.36 3.84L39.72 3.6L38.92 3.52C38.7067 3.46666 38.44 3.44 38.12 3.44C37.8 3.38666 37.48 3.36 37.16 3.36L36.76 4.56C36.4933 5.36 36.28 6.21333 36.12 7.12C36.0133 8.02667 35.48 8.72 34.52 9.2C34.4667 9.41333 34.28 9.89333 33.96 10.64C33.6933 11.3333 33.4267 12.0267 33.16 12.72C32.8933 13.36 32.7067 13.7333 32.6 13.84C32.44 14.0533 32.28 14.2667 32.12 14.48C32.0133 14.64 31.9333 14.8533 31.88 15.12C31.8267 15.6533 31.64 16.3733 31.32 17.28C31 18.1333 30.6533 19.0133 30.28 19.92C29.9067 20.8267 29.5867 21.5467 29.32 22.08C29.0533 22.2933 28.8133 22.4533 28.6 22.56C28.44 22.6667 28.52 22.9067 28.84 23.28C28.68 23.6533 28.52 23.84 28.36 23.84C28.2 23.7867 27.9867 23.7333 27.72 23.68C27.8267 23.8933 27.9067 24.0533 27.96 24.16C28.0667 24.2133 28.1467 24.3733 28.2 24.64C27.8267 25.5467 27.3733 26.64 26.84 27.92C26.36 29.2 25.8267 30.2133 25.24 30.96C24.8667 31.12 24.5733 31.28 24.36 31.44C24.2 31.6 24.2267 31.92 24.44 32.4C24.2267 32.72 24.12 32.9867 24.12 33.2L23.56 34.08C23.3467 34.24 23.1333 34.4267 22.92 34.64C22.76 34.8 22.68 35.04 22.68 35.36L22.2 36.08C21.9333 36.1867 21.6933 36.32 21.48 36.48C21.2667 36.64 21.16 36.9067 21.16 37.28C19.56 39.0933 17.8 40.24 15.88 40.72L16.52 41.2C16.6267 41.2 16.84 41.3067 17.16 41.52C17.5333 41.7333 17.7467 41.8933 17.8 42C18.44 42.48 18.9467 42.8 19.32 42.96C19.7467 43.12 20.1467 43.2 20.52 43.2C20.9467 43.2 21.56 43.12 22.36 42.96H22.76C23.1333 42.96 23.32 43.04 23.32 43.2C23.3733 43.36 23.2933 43.5467 23.08 43.76C23.0267 43.8133 22.92 43.8933 22.76 44C22.6533 44.16 22.5733 44.24 22.52 44.24C22.36 44.24 22.2 44.2667 22.04 44.32C21.88 44.3733 21.6933 44.4 21.48 44.4ZM12.92 39.52L12.68 39.36C12.52 39.04 12.2 38.7467 11.72 38.48C11.2933 38.2133 10.8933 37.8933 10.52 37.52C10.1467 37.1467 9.8 36.7733 9.48 36.4C9.21333 35.9733 8.94667 35.6267 8.68 35.36C8.57333 35.2 8.36 34.9333 8.04 34.56C7.77333 34.1333 7.48 33.7333 7.16 33.36C6.94667 33.1467 6.81333 32.9067 6.76 32.64C6.76 32.3733 6.70667 32.2133 6.6 32.16C6.38667 31.8933 6.17333 31.6533 5.96 31.44C5.74667 31.1733 5.53333 30.8533 5.32 30.48C5.10667 30.0533 4.86667 29.5733 4.6 29.04C4.33333 28.5067 3.98667 28 3.56 27.52L2.12 25.76C2.86667 28.5867 3.98667 31.0933 5.48 33.28C6.97333 35.4667 8.54667 37.0933 10.2 38.16C10.68 38.48 11.1333 38.7733 11.56 39.04C12.04 39.2533 12.4933 39.4133 12.92 39.52ZM46.1125 40.24C45.7925 40.24 45.6325 40.0533 45.6325 39.68C45.6325 39.4133 45.7125 39.0933 45.8725 38.72C46.2992 37.8133 46.7792 36.5333 47.3125 34.88C47.8992 33.2267 48.6192 31.8133 49.4725 30.64C50.0592 29.4667 50.5925 28.32 51.0725 27.2C51.6058 26.0267 52.1125 24.8533 52.5925 23.68C52.5925 23.68 52.5392 23.6533 52.4325 23.6C52.3258 23.4933 52.2725 23.3867 52.2725 23.28C52.0058 23.0667 51.6858 22.7733 51.3125 22.4C50.9392 21.9733 50.9125 21.5467 51.2325 21.12C51.3392 21.0133 51.3925 20.96 51.3925 20.96C51.4458 20.96 51.4725 20.96 51.4725 20.96C51.4725 20.9067 51.4458 20.88 51.3925 20.88C51.3925 20.88 51.3925 20.8533 51.3925 20.8L51.3125 20.72C51.2592 20.72 51.2058 20.72 51.1525 20.72C51.1525 20.6667 51.1258 20.64 51.0725 20.64C50.8592 20.64 50.6192 20.6933 50.3525 20.8C50.0858 20.8533 49.8192 20.88 49.5525 20.88C49.2325 20.88 48.8058 21.0133 48.2725 21.28C47.7392 21.4933 47.2592 21.68 46.8325 21.84C46.6192 21.8933 46.4858 21.92 46.4325 21.92C46.4325 21.8667 46.3258 21.8933 46.1125 22C46.0592 22.0533 46.0592 21.9733 46.1125 21.76C46.2192 21.4933 46.2725 21.3067 46.2725 21.2C46.2725 21.1467 46.2458 21.12 46.1925 21.12C46.0858 21.12 45.8725 21.28 45.5525 21.6C45.2325 21.8667 45.0192 22.0267 44.9125 22.08C44.8592 22.1333 44.8325 22.2133 44.8325 22.32C44.8858 22.4267 44.9125 22.5333 44.9125 22.64C44.9125 22.8 44.7792 22.9867 44.5125 23.2C44.2458 23.36 44.0592 23.4933 43.9525 23.6C43.7392 23.76 43.4725 23.8667 43.1525 23.92C42.8858 23.92 42.6192 24.0267 42.3525 24.24C42.0325 24.4533 41.8725 24.6133 41.8725 24.72C41.9258 24.8267 41.7658 25.0133 41.3925 25.28C40.9125 25.6533 40.2458 26.2133 39.3925 26.96C38.5925 27.7067 37.9792 28.3733 37.5525 28.96C36.5392 30.1867 35.6058 31.6 34.7525 33.2C33.9525 34.8 33.5525 36.0533 33.5525 36.96C33.5525 37.6533 33.8458 38 34.4325 38C34.5392 38 34.6458 38 34.7525 38C34.8592 37.9467 34.9925 37.8933 35.1525 37.84L37.2325 36.64L37.7125 36.56V36.48L38.0325 36.72C38.0858 36.6667 38.0592 36.5867 37.9525 36.48C37.8992 36.32 37.8992 36.24 37.9525 36.24C38.0058 36.24 38.0325 36.2667 38.0325 36.32C38.0858 36.32 38.1392 36.32 38.1925 36.32L38.3525 36.08C38.3525 36.08 38.4325 36.1067 38.5925 36.16C38.8058 36.16 38.9658 36.1067 39.0725 36C39.2325 35.9467 39.2592 35.8667 39.1525 35.76C39.0992 35.6533 39.0192 35.5733 38.9125 35.52L39.4725 35.04C39.5258 34.9333 39.7392 34.8267 40.1125 34.72C41.0192 34.1333 41.7658 33.44 42.3525 32.64C42.9925 31.7867 43.7125 31.0133 44.5125 30.32H44.5925L45.5525 29.36L45.4725 29.12L46.5125 27.92H46.6725C46.7258 27.8133 46.8325 27.68 46.9925 27.52C47.2058 27.36 47.3392 27.2267 47.3925 27.12C47.4992 27.0667 47.7392 26.8 48.1125 26.32C48.5392 25.7867 48.9392 25.36 49.3125 25.04C49.7392 24.72 49.9792 24.56 50.0325 24.56C50.0858 24.56 50.1125 24.5867 50.1125 24.64C50.1125 24.8 50.0325 25.04 49.8725 25.36C49.7658 25.68 49.6592 25.8933 49.5525 26C49.1792 26.5867 48.6992 27.2533 48.1125 28C47.5258 28.6933 47.1792 29.12 47.0725 29.28C46.4325 29.9733 45.6592 30.9067 44.7525 32.08C43.8458 33.2 42.8592 34.32 41.7925 35.44C40.7258 36.56 39.6592 37.52 38.5925 38.32C37.5792 39.0667 36.6192 39.44 35.7125 39.44C34.8592 39.44 33.9525 39.1733 32.9925 38.64C32.0325 38.1067 31.5525 37.0933 31.5525 35.6C31.5525 35.12 31.6058 34.5867 31.7125 34C31.8725 33.36 32.1125 32.6933 32.4325 32C32.4325 32 32.4858 31.9467 32.5925 31.84C32.6992 31.68 32.7792 31.6267 32.8325 31.68C32.9392 31.52 32.9658 31.36 32.9125 31.2C32.9125 30.9867 32.9125 30.8533 32.9125 30.8L33.0725 30.64C33.1792 30.0533 33.5792 29.52 34.2725 29.04C34.9658 28.56 35.3392 28.1867 35.3925 27.92C35.4458 27.8667 35.4725 27.7867 35.4725 27.68L35.7925 26.64V26.32H36.1125L36.3525 26L36.4325 25.84C36.3258 25.7867 36.3525 25.7067 36.5125 25.6C36.7258 25.44 36.8325 25.36 36.8325 25.36C36.8858 25.2533 36.9392 25.1733 36.9925 25.12C37.0992 25.0667 37.1792 25.0133 37.2325 24.96H37.7925C37.8992 24.8 37.8458 24.72 37.6325 24.72C37.4192 24.72 37.3125 24.72 37.3125 24.72C37.3125 24.6667 37.3125 24.64 37.3125 24.64C37.3658 24.5867 37.3925 24.5333 37.3925 24.48L38.2725 23.76C38.5392 23.5467 38.8058 23.36 39.0725 23.2C39.3392 23.04 39.5792 22.8533 39.7925 22.64C39.9525 22.64 39.9792 22.72 39.8725 22.88C39.9258 22.9867 39.9792 22.9867 40.0325 22.88C40.1392 22.7733 40.1925 22.72 40.1925 22.72L40.5925 22.64V22.56C40.5925 22.4533 40.6192 22.2933 40.6725 22.08C40.7258 21.8667 40.7525 21.7333 40.7525 21.68C41.8725 20.8267 43.0458 20.08 44.2725 19.44C45.4992 18.7467 46.6992 18.4 47.8725 18.4C49.2592 18.4 50.5125 18.9333 51.6325 20L52.0325 20.24C52.0858 20.24 52.1125 20.2133 52.1125 20.16C52.2192 19.4133 52.8325 18.8533 53.9525 18.48C55.1258 18.1067 56.1658 17.92 57.0725 17.92C58.0325 17.92 58.5125 18.0533 58.5125 18.32C58.5125 18.4267 58.3525 18.6133 58.0325 18.88C57.8725 18.9867 57.6058 19.2267 57.2325 19.6C56.8592 19.9733 56.4858 20.4267 56.1125 20.96C56.0592 21.12 55.9792 21.28 55.8725 21.44C55.7658 21.6 55.6592 21.76 55.5525 21.92C55.4992 22.0267 55.4192 22.16 55.3125 22.32C55.2592 22.4267 55.1792 22.5333 55.0725 22.64C54.1658 24.1867 53.4458 25.4933 52.9125 26.56C52.3792 27.6267 51.7392 28.9867 50.9925 30.64C50.8858 30.96 50.8325 31.1467 50.8325 31.2C50.8325 31.6267 51.0725 31.84 51.5525 31.84C51.8725 31.84 52.1925 31.76 52.5125 31.6L53.3125 31.28C54.5925 30.1067 55.9258 29.12 57.3125 28.32C57.3658 28.32 57.3925 28.32 57.3925 28.32C57.4458 28.2667 57.4992 28.24 57.5525 28.24C57.7125 28.24 57.8192 28.3467 57.8725 28.56C57.9258 28.72 57.8725 28.8533 57.7125 28.96C56.1658 29.8133 54.7258 30.9067 53.3925 32.24C53.3392 32.3467 53.2858 32.4533 53.2325 32.56C53.1792 32.6667 53.0992 32.7733 52.9925 32.88C52.8325 32.9867 52.6725 33.1733 52.5125 33.44C52.3525 33.7067 52.2725 33.8667 52.2725 33.92C52.2192 34.08 52.1392 34.1333 52.0325 34.08C51.9792 34.0267 51.8192 34.1067 51.5525 34.32C51.4992 34.3733 51.4458 34.48 51.3925 34.64C51.3925 34.8 51.3658 34.9333 51.3125 35.04C51.2058 35.2 51.0992 35.3333 50.9925 35.44C50.8858 35.4933 50.8325 35.5467 50.8325 35.6C50.7792 35.8133 50.6725 35.9467 50.5125 36C50.4058 36 50.2992 36.0533 50.1925 36.16C50.1392 36.16 50.1125 36.1867 50.1125 36.24C50.1125 36.72 50.0592 36.9333 49.9525 36.88C49.8458 36.8267 49.7392 36.88 49.6325 37.04C49.5258 37.2533 49.3925 37.36 49.2325 37.36C48.9125 37.4667 48.7792 37.5467 48.8325 37.6C48.9392 37.6533 49.0192 37.7067 49.0725 37.76C49.1792 37.76 49.0992 37.84 48.8325 38C48.7258 38.0533 48.6192 38.2133 48.5125 38.48C48.4058 38.6933 48.2992 38.8533 48.1925 38.96C48.0325 39.0667 47.8725 39.1467 47.7125 39.2C47.5525 39.2533 47.4192 39.36 47.3125 39.52C46.8325 40 46.4325 40.24 46.1125 40.24ZM64.6288 40.24C62.6554 40.24 61.1621 39.8933 60.1488 39.2C59.1354 38.5067 58.4421 37.68 58.0688 36.72C57.6954 35.76 57.5888 34.6667 57.7488 33.44L57.9088 33.2C58.0154 33.04 58.0954 32.8267 58.1488 32.56C58.2021 32.2933 58.2554 32.1333 58.3088 32.08L58.9488 32.24C59.0554 32.2933 59.1354 32.2133 59.1888 32C59.2421 31.7867 59.2154 31.7067 59.1087 31.76C58.7888 31.8133 58.6288 31.8667 58.6288 31.92C58.6288 31.9733 58.5754 31.8667 58.4688 31.6L58.7088 31.44L58.6288 31.36C58.6288 31.2533 58.6821 31.2 58.7888 31.2L58.6288 30.96C58.6288 30.96 58.8421 30.9867 59.2688 31.04C59.7488 31.04 59.9354 30.9867 59.8288 30.88C59.8821 30.88 59.8554 30.8533 59.7488 30.8C59.6421 30.6933 59.5888 30.6133 59.5888 30.56C59.5354 30.6133 59.5088 30.6133 59.5088 30.56C59.5088 30.4533 59.3221 30.4533 58.9488 30.56C58.7888 30.6133 58.7088 30.5867 58.7088 30.48C58.7088 30.3733 58.7088 30.32 58.7088 30.32C58.8688 30.2667 59.0288 30.2133 59.1888 30.16C59.3488 30.0533 59.4554 29.8933 59.5088 29.68C59.5621 29.1467 59.6154 28.8533 59.6688 28.8C59.7221 28.7467 59.7754 28.6667 59.8288 28.56C59.8821 28.4533 59.9621 28.32 60.0688 28.16C60.1754 27.9467 60.2554 27.84 60.3088 27.84C60.2554 27.7867 60.2288 27.7067 60.2288 27.6C60.2288 27.3333 60.4154 27.2267 60.7888 27.28C61.2154 27.3333 61.3488 27.1733 61.1888 26.8C61.0288 26.5867 61.1088 26.48 61.4288 26.48L61.3488 26.4C61.5621 26.2933 61.6954 26.24 61.7487 26.24C61.8554 26.1867 61.8021 26.08 61.5888 25.92L61.9088 25.2C61.9621 25.0933 62.0688 24.9333 62.2288 24.72C62.4421 24.4533 62.7621 24.1867 63.1888 23.92C63.1888 23.92 63.1621 23.9467 63.1088 24C63.1088 24 63.1088 24.0267 63.1088 24.08H63.1888C63.3488 24.08 63.6421 23.92 64.0688 23.6C64.0154 23.5467 63.9088 23.52 63.7488 23.52C63.6421 23.4667 63.5621 23.4133 63.5088 23.36C63.4554 23.2 63.7221 22.8533 64.3088 22.32C64.8954 21.7867 65.5354 21.28 66.2288 20.8C66.9221 20.2667 67.3488 19.9467 67.5088 19.84C68.3088 19.4133 69.1888 19.0667 70.1488 18.8C71.1621 18.48 72.0421 18.4 72.7888 18.56C72.9488 18.6133 73.1888 18.8267 73.5088 19.2C73.8821 19.5733 74.1488 19.68 74.3088 19.52C74.7888 19.0933 75.3488 18.6667 75.9888 18.24C76.6288 17.8133 77.0021 17.6267 77.1088 17.68C77.3754 17.7333 77.6421 17.84 77.9088 18C78.1754 18.1067 78.3088 18.4267 78.3088 18.96C78.3088 19.3333 78.2821 19.6533 78.2288 19.92C78.1754 20.24 78.0421 20.5067 77.8288 20.72C77.6154 20.9333 77.4021 21.1733 77.1888 21.44C76.9754 21.76 76.5754 22.2667 75.9888 22.96C75.4554 23.6 75.0554 24 74.7888 24.16C74.6288 24.2133 74.4421 24.3733 74.2288 24.64C74.0688 24.8533 73.8554 25.0667 73.5888 25.28C73.3754 25.44 73.1088 25.5733 72.7888 25.68C72.5221 25.7333 72.3354 25.7867 72.2288 25.84C72.1221 25.8933 71.9354 25.92 71.6688 25.92C71.4554 25.8667 71.4021 25.76 71.5088 25.6C71.5621 25.5467 71.5621 25.4933 71.5088 25.44C71.5088 25.3333 71.5088 25.2533 71.5088 25.2C71.5621 25.0933 71.6421 25.0133 71.7488 24.96C71.8554 24.9067 71.9354 24.8267 71.9888 24.72C72.0421 24.6667 72.1754 24.48 72.3888 24.16C72.6554 23.84 72.7888 23.6533 72.7888 23.6C72.7354 23.5467 72.7354 23.4933 72.7888 23.44C72.8421 23.3333 72.8688 23.2533 72.8688 23.2C72.9221 23.1467 72.9488 23.0667 72.9488 22.96C72.9488 22.8533 73.0021 22.8 73.1088 22.8C73.3221 22.7467 73.4288 22.6667 73.4288 22.56C73.4288 22.1333 73.4554 21.7333 73.5088 21.36C73.6154 20.9867 73.5888 20.6667 73.4288 20.4C73.2154 19.9733 72.8154 19.76 72.2288 19.76C71.4288 19.76 70.4954 20.1067 69.4288 20.8C68.3621 21.44 67.6421 21.9733 67.2688 22.4C65.5621 24.32 64.1754 26.48 63.1088 28.88C62.0421 31.28 61.6154 33.4133 61.8288 35.28C61.9354 36.1867 62.3088 36.9333 62.9488 37.52C63.5888 38.1067 64.3088 38.4 65.1088 38.4H66.4688C66.6288 38.4 66.7888 38.4 66.9488 38.4C67.1621 38.3467 67.3754 38.2933 67.5888 38.24C67.9088 38.1333 68.1488 38.08 68.3088 38.08C68.5754 37.8133 68.7354 37.8133 68.7888 38.08C69.2154 37.8667 69.4021 37.7867 69.3488 37.84C69.2954 37.8933 69.3754 37.8933 69.5888 37.84C70.6554 37.5733 71.6954 37.12 72.7088 36.48C73.7221 35.84 74.6554 35.2 75.5088 34.56C75.6688 34.4533 75.9354 34.2933 76.3088 34.08C76.6821 33.8667 76.9488 33.7067 77.1088 33.6C77.2154 33.44 77.2954 33.3067 77.3488 33.2C77.4554 33.04 77.5888 32.9333 77.7488 32.88C77.8554 32.72 77.9888 32.56 78.1488 32.4C78.3088 32.1867 78.4154 32.0533 78.4688 32C78.7354 31.8933 78.8154 31.8133 78.7088 31.76C78.6021 31.6533 78.7354 31.52 79.1088 31.36C79.2154 31.3067 79.3221 31.28 79.4288 31.28C79.5354 31.28 79.5888 31.3333 79.5888 31.44C79.5888 31.5467 79.4288 31.84 79.1088 32.32C78.8954 32.6933 78.4954 33.1733 77.9088 33.76L77.1088 34.56L76.1488 35.04C76.0421 35.1467 75.9888 35.2533 75.9888 35.36C75.9888 35.4133 75.9354 35.4933 75.8288 35.6C74.3354 36.9333 72.6288 38.0533 70.7088 38.96C68.8421 39.8133 66.8154 40.24 64.6288 40.24ZM94.9406 40.24C94.6206 40.24 94.4606 40.0533 94.4606 39.68C94.4606 39.4133 94.5406 39.0933 94.7006 38.72C95.1273 37.8133 95.6073 36.5333 96.1406 34.88C96.7273 33.2267 97.4473 31.8133 98.3006 30.64C98.8873 29.4667 99.4206 28.32 99.9006 27.2C100.434 26.0267 100.941 24.8533 101.421 23.68C101.421 23.68 101.367 23.6533 101.261 23.6C101.154 23.4933 101.101 23.3867 101.101 23.28C100.834 23.0667 100.514 22.7733 100.141 22.4C99.7673 21.9733 99.7406 21.5467 100.061 21.12C100.167 21.0133 100.221 20.96 100.221 20.96C100.274 20.96 100.301 20.96 100.301 20.96C100.301 20.9067 100.274 20.88 100.221 20.88C100.221 20.88 100.221 20.8533 100.221 20.8L100.141 20.72C100.087 20.72 100.034 20.72 99.9806 20.72C99.9806 20.6667 99.954 20.64 99.9006 20.64C99.6873 20.64 99.4473 20.6933 99.1806 20.8C98.914 20.8533 98.6473 20.88 98.3806 20.88C98.0606 20.88 97.634 21.0133 97.1006 21.28C96.5673 21.4933 96.0873 21.68 95.6606 21.84C95.4473 21.8933 95.314 21.92 95.2606 21.92C95.2606 21.8667 95.154 21.8933 94.9406 22C94.8873 22.0533 94.8873 21.9733 94.9406 21.76C95.0473 21.4933 95.1006 21.3067 95.1006 21.2C95.1006 21.1467 95.074 21.12 95.0206 21.12C94.914 21.12 94.7006 21.28 94.3806 21.6C94.0606 21.8667 93.8473 22.0267 93.7406 22.08C93.6873 22.1333 93.6606 22.2133 93.6606 22.32C93.714 22.4267 93.7406 22.5333 93.7406 22.64C93.7406 22.8 93.6073 22.9867 93.3406 23.2C93.074 23.36 92.8873 23.4933 92.7806 23.6C92.5673 23.76 92.3006 23.8667 91.9806 23.92C91.714 23.92 91.4473 24.0267 91.1806 24.24C90.8606 24.4533 90.7006 24.6133 90.7006 24.72C90.754 24.8267 90.594 25.0133 90.2206 25.28C89.7406 25.6533 89.074 26.2133 88.2206 26.96C87.4206 27.7067 86.8073 28.3733 86.3806 28.96C85.3673 30.1867 84.434 31.6 83.5806 33.2C82.7806 34.8 82.3806 36.0533 82.3806 36.96C82.3806 37.6533 82.674 38 83.2606 38C83.3673 38 83.474 38 83.5806 38C83.6873 37.9467 83.8206 37.8933 83.9806 37.84L86.0606 36.64L86.5406 36.56V36.48L86.8606 36.72C86.914 36.6667 86.8873 36.5867 86.7806 36.48C86.7273 36.32 86.7273 36.24 86.7806 36.24C86.834 36.24 86.8606 36.2667 86.8606 36.32C86.914 36.32 86.9673 36.32 87.0206 36.32L87.1806 36.08C87.1806 36.08 87.2606 36.1067 87.4206 36.16C87.634 36.16 87.794 36.1067 87.9006 36C88.0606 35.9467 88.0873 35.8667 87.9806 35.76C87.9273 35.6533 87.8473 35.5733 87.7406 35.52L88.3006 35.04C88.354 34.9333 88.5673 34.8267 88.9406 34.72C89.8473 34.1333 90.594 33.44 91.1806 32.64C91.8206 31.7867 92.5406 31.0133 93.3406 30.32H93.4206L94.3806 29.36L94.3006 29.12L95.3406 27.92H95.5006C95.554 27.8133 95.6606 27.68 95.8206 27.52C96.034 27.36 96.1673 27.2267 96.2206 27.12C96.3273 27.0667 96.5673 26.8 96.9406 26.32C97.3673 25.7867 97.7673 25.36 98.1406 25.04C98.5673 24.72 98.8073 24.56 98.8606 24.56C98.914 24.56 98.9406 24.5867 98.9406 24.64C98.9406 24.8 98.8606 25.04 98.7006 25.36C98.594 25.68 98.4873 25.8933 98.3806 26C98.0073 26.5867 97.5273 27.2533 96.9406 28C96.354 28.6933 96.0073 29.12 95.9006 29.28C95.2606 29.9733 94.4873 30.9067 93.5806 32.08C92.674 33.2 91.6873 34.32 90.6206 35.44C89.554 36.56 88.4873 37.52 87.4206 38.32C86.4073 39.0667 85.4473 39.44 84.5406 39.44C83.6873 39.44 82.7806 39.1733 81.8206 38.64C80.8606 38.1067 80.3806 37.0933 80.3806 35.6C80.3806 35.12 80.434 34.5867 80.5406 34C80.7006 33.36 80.9406 32.6933 81.2606 32C81.2606 32 81.314 31.9467 81.4206 31.84C81.5273 31.68 81.6073 31.6267 81.6606 31.68C81.7673 31.52 81.794 31.36 81.7406 31.2C81.7406 30.9867 81.7406 30.8533 81.7406 30.8L81.9006 30.64C82.0073 30.0533 82.4073 29.52 83.1006 29.04C83.794 28.56 84.1673 28.1867 84.2206 27.92C84.274 27.8667 84.3006 27.7867 84.3006 27.68L84.6206 26.64V26.32H84.9406L85.1806 26L85.2606 25.84C85.154 25.7867 85.1806 25.7067 85.3406 25.6C85.554 25.44 85.6606 25.36 85.6606 25.36C85.714 25.2533 85.7673 25.1733 85.8206 25.12C85.9273 25.0667 86.0073 25.0133 86.0606 24.96H86.6206C86.7273 24.8 86.674 24.72 86.4606 24.72C86.2473 24.72 86.1406 24.72 86.1406 24.72C86.1406 24.6667 86.1406 24.64 86.1406 24.64C86.194 24.5867 86.2206 24.5333 86.2206 24.48L87.1006 23.76C87.3673 23.5467 87.634 23.36 87.9006 23.2C88.1673 23.04 88.4073 22.8533 88.6206 22.64C88.7806 22.64 88.8073 22.72 88.7006 22.88C88.754 22.9867 88.8073 22.9867 88.8606 22.88C88.9673 22.7733 89.0206 22.72 89.0206 22.72L89.4206 22.64V22.56C89.4206 22.4533 89.4473 22.2933 89.5006 22.08C89.554 21.8667 89.5806 21.7333 89.5806 21.68C90.7006 20.8267 91.874 20.08 93.1006 19.44C94.3273 18.7467 95.5273 18.4 96.7006 18.4C98.0873 18.4 99.3406 18.9333 100.461 20L100.861 20.24C100.914 20.24 100.941 20.2133 100.941 20.16C101.047 19.4133 101.661 18.8533 102.781 18.48C103.954 18.1067 104.994 17.92 105.901 17.92C106.861 17.92 107.341 18.0533 107.341 18.32C107.341 18.4267 107.181 18.6133 106.861 18.88C106.701 18.9867 106.434 19.2267 106.061 19.6C105.687 19.9733 105.314 20.4267 104.941 20.96C104.887 21.12 104.807 21.28 104.701 21.44C104.594 21.6 104.487 21.76 104.381 21.92C104.327 22.0267 104.247 22.16 104.141 22.32C104.087 22.4267 104.007 22.5333 103.901 22.64C102.994 24.1867 102.274 25.4933 101.741 26.56C101.207 27.6267 100.567 28.9867 99.8206 30.64C99.714 30.96 99.6606 31.1467 99.6606 31.2C99.6606 31.6267 99.9006 31.84 100.381 31.84C100.701 31.84 101.021 31.76 101.341 31.6L102.141 31.28C103.421 30.1067 104.754 29.12 106.141 28.32C106.194 28.32 106.221 28.32 106.221 28.32C106.274 28.2667 106.327 28.24 106.381 28.24C106.541 28.24 106.647 28.3467 106.701 28.56C106.754 28.72 106.701 28.8533 106.541 28.96C104.994 29.8133 103.554 30.9067 102.221 32.24C102.167 32.3467 102.114 32.4533 102.061 32.56C102.007 32.6667 101.927 32.7733 101.821 32.88C101.661 32.9867 101.501 33.1733 101.341 33.44C101.181 33.7067 101.101 33.8667 101.101 33.92C101.047 34.08 100.967 34.1333 100.861 34.08C100.807 34.0267 100.647 34.1067 100.381 34.32C100.327 34.3733 100.274 34.48 100.221 34.64C100.221 34.8 100.194 34.9333 100.141 35.04C100.034 35.2 99.9273 35.3333 99.8206 35.44C99.714 35.4933 99.6606 35.5467 99.6606 35.6C99.6073 35.8133 99.5006 35.9467 99.3406 36C99.234 36 99.1273 36.0533 99.0206 36.16C98.9673 36.16 98.9406 36.1867 98.9406 36.24C98.9406 36.72 98.8873 36.9333 98.7806 36.88C98.674 36.8267 98.5673 36.88 98.4606 37.04C98.354 37.2533 98.2206 37.36 98.0606 37.36C97.7406 37.4667 97.6073 37.5467 97.6606 37.6C97.7673 37.6533 97.8473 37.7067 97.9006 37.76C98.0073 37.76 97.9273 37.84 97.6606 38C97.554 38.0533 97.4473 38.2133 97.3406 38.48C97.234 38.6933 97.1273 38.8533 97.0206 38.96C96.8606 39.0667 96.7006 39.1467 96.5406 39.2C96.3806 39.2533 96.2473 39.36 96.1406 39.52C95.6606 40 95.2606 40.24 94.9406 40.24ZM108.737 39.84C108.204 39.84 107.644 39.7333 107.057 39.52C106.47 39.2533 106.257 38.96 106.417 38.64C106.63 38.2133 106.87 37.7867 107.137 37.36C107.457 36.88 107.75 36.3733 108.017 35.84L108.897 34.16C109.004 33.8933 109.11 33.7067 109.217 33.6C109.377 33.44 109.51 33.2533 109.617 33.04C109.67 32.9867 109.697 32.8533 109.697 32.64C109.697 32.3733 109.804 32.08 110.017 31.76C110.284 31.3867 110.47 31.04 110.577 30.72C110.63 30.6667 110.684 30.8267 110.737 31.2C110.79 31.5733 110.924 31.5467 111.137 31.12C111.19 31.0667 111.164 30.9867 111.057 30.88C111.004 30.7733 110.977 30.6667 110.977 30.56C110.977 30.4533 111.004 30.4 111.057 30.4C111.164 30.3467 111.217 30.2933 111.217 30.24C111.27 30.08 111.217 30.0267 111.057 30.08C110.95 30.08 110.897 30.0533 110.897 30C111.004 29.84 111.11 29.7333 111.217 29.68C111.377 29.6267 111.484 29.5467 111.537 29.44C111.537 29.3333 111.484 29.28 111.377 29.28C111.324 29.2267 111.324 29.1733 111.377 29.12C111.644 28.3733 111.937 27.4933 112.257 26.48C112.577 25.4667 112.817 24.5333 112.977 23.68C112.977 23.68 112.924 23.6533 112.817 23.6C112.71 23.4933 112.657 23.3867 112.657 23.28L112.097 22.88C111.457 23.4667 110.764 23.9733 110.017 24.4C109.964 24.4533 109.857 24.48 109.697 24.48C109.484 24.48 109.35 24.3733 109.297 24.16C109.244 23.9467 109.324 23.76 109.537 23.6C109.804 23.44 110.017 23.3333 110.177 23.28C110.337 23.1733 110.524 23.0133 110.737 22.8C110.844 22.6933 110.897 22.5867 110.897 22.48C110.95 22.3733 111.004 22.2667 111.057 22.16L111.377 21.76C111.377 21.4933 111.43 21.28 111.537 21.12C111.644 21.0133 111.724 20.96 111.777 20.96C111.83 20.96 111.857 20.96 111.857 20.96V20.8C111.857 20.5867 111.937 20.4533 112.097 20.4C112.31 20.3467 112.417 20.2667 112.417 20.16C112.524 19.4133 113.164 18.8533 114.337 18.48C115.51 18.1067 116.55 17.92 117.457 17.92C118.364 17.92 118.817 18.0533 118.817 18.32C118.817 18.48 118.657 18.6667 118.337 18.88C118.177 18.9867 117.91 19.2267 117.537 19.6C117.164 19.9733 116.817 20.4267 116.497 20.96L115.937 21.92L115.377 22.64C115.004 23.4933 114.47 24.8 113.777 26.56C113.084 28.32 112.364 30.5333 111.617 33.2C111.777 32.9867 112.15 32.5333 112.737 31.84C113.324 31.1467 114.017 30.3467 114.817 29.44C115.617 28.5333 116.39 27.68 117.137 26.88C117.884 26.0267 118.497 25.36 118.977 24.88L119.377 24.64C119.484 24.5333 119.59 24.4 119.697 24.24C119.857 24.0267 119.99 23.8667 120.097 23.76C120.15 23.7067 120.177 23.8133 120.177 24.08C120.23 24.2933 120.284 24.3733 120.337 24.32C120.55 24.16 120.657 23.92 120.657 23.6C120.71 23.28 120.844 23.0667 121.057 22.96C121.644 22.48 122.444 21.8133 123.457 20.96C124.524 20.0533 125.617 19.52 126.737 19.36C126.844 19.2533 127.004 19.2267 127.217 19.28C127.484 19.28 127.67 19.2533 127.777 19.2C127.884 19.2 127.964 19.1733 128.017 19.12C128.07 19.0667 128.204 19.04 128.417 19.04C128.524 19.04 128.737 19.12 129.057 19.28C129.43 19.44 129.644 19.6533 129.697 19.92C130.017 20.1333 130.177 20.4533 130.177 20.88C130.177 21.6267 129.777 22.1867 128.977 22.56C128.71 22.8267 128.417 23.0933 128.097 23.36C127.777 23.5733 127.457 23.8133 127.137 24.08C127.03 24.1867 126.95 24.24 126.897 24.24C126.524 24.56 126.204 24.9067 125.937 25.28C125.67 25.6533 125.537 26.1333 125.537 26.72C125.537 26.7733 125.59 26.8533 125.697 26.96C125.804 27.0133 125.83 27.0667 125.777 27.12C125.937 27.28 126.177 27.3867 126.497 27.44C126.817 27.44 127.137 27.44 127.457 27.44C127.99 27.44 128.79 27.2267 129.857 26.8H130.017C130.07 26.8 130.097 26.8267 130.097 26.88C130.097 26.9867 129.99 27.1733 129.777 27.44C129.564 27.6533 129.324 27.8133 129.057 27.92C128.47 28.1333 127.857 28.2667 127.217 28.32C126.577 28.32 126.124 28.32 125.857 28.32C124.897 28.32 124.284 28.1333 124.017 27.76C123.804 27.3867 123.59 26.9333 123.377 26.4V26L123.777 25.6C123.724 25.44 123.644 25.28 123.537 25.12C123.43 24.96 123.377 24.7733 123.377 24.56C123.377 24.0267 123.59 23.4133 124.017 22.72C123.43 22.88 122.684 23.3333 121.777 24.08C120.924 24.7733 120.044 25.6 119.137 26.56C118.23 27.4667 117.404 28.3733 116.657 29.28C115.91 30.1333 115.324 30.8267 114.897 31.36C114.737 31.5733 114.55 31.7067 114.337 31.76C114.177 31.76 114.044 31.84 113.937 32C113.884 32.0533 113.937 32.08 114.097 32.08C114.31 32.08 114.39 32.1067 114.337 32.16C113.644 33.2267 112.897 34.4 112.097 35.68C111.35 36.96 110.604 38.2133 109.857 39.44C109.697 39.7067 109.324 39.84 108.737 39.84ZM132.329 40.24C132.009 40.24 131.849 40.0533 131.849 39.68C131.849 39.4133 131.929 39.0933 132.089 38.72C132.515 37.8133 132.995 36.5333 133.529 34.88C134.115 33.2267 134.835 31.8133 135.689 30.64L139.689 22.4C139.369 22.4 139.049 22.48 138.729 22.64C138.462 22.8 138.329 22.9333 138.329 23.04C138.329 23.2533 138.035 23.4667 137.449 23.68C136.862 23.8933 136.542 24.0267 136.489 24.08C135.689 24.2933 134.942 24.5333 134.249 24.8C133.715 25.3867 133.182 25.9733 132.649 26.56C132.169 27.1467 131.715 27.7333 131.289 28.32C131.235 28.3733 131.182 28.4 131.129 28.4C130.649 28.9333 130.249 29.3333 129.929 29.6C129.609 29.8667 129.262 30.1067 128.889 30.32C128.675 30.48 128.462 30.5333 128.249 30.48C127.982 30.3733 127.955 30.2667 128.169 30.16C128.435 30.0533 128.862 29.68 129.449 29.04C130.035 28.4 130.489 27.92 130.809 27.6C131.075 27.44 131.155 27.44 131.049 27.6C130.995 27.76 131.075 27.7333 131.289 27.52L133.289 24.96L133.369 24.88C133.102 24.72 132.969 24.2933 132.969 23.6C132.969 23.0667 133.075 22.64 133.289 22.32C133.289 22.2667 133.342 22.24 133.449 22.24L135.129 21.76C135.289 21.76 135.395 21.7333 135.449 21.68C135.555 21.5733 135.662 21.44 135.769 21.28C135.929 21.0667 136.115 20.8 136.329 20.48L137.289 19.2L137.929 18.32C137.929 18.16 138.035 17.9733 138.249 17.76C138.515 17.4933 138.729 17.3067 138.889 17.2C139.102 16.88 139.235 16.64 139.289 16.48C139.395 16.2667 139.555 16 139.769 15.68C139.769 15.6267 139.849 15.6 140.009 15.6C140.169 15.5467 140.249 15.4933 140.249 15.44C140.302 14.9067 140.382 14.6667 140.489 14.72C140.649 14.72 140.729 14.64 140.729 14.48C140.729 14.32 140.835 14.1867 141.049 14.08L141.449 13.6C141.449 13.5467 141.529 13.44 141.689 13.28V13.2C141.689 13.0933 141.689 12.96 141.689 12.8C141.689 12.64 141.742 12.48 141.849 12.32C141.955 12.2133 142.035 12.16 142.089 12.16C142.142 12.16 142.169 12.16 142.169 12.16C142.169 12.1067 142.142 12.08 142.089 12.08C142.089 12.0267 142.089 12 142.089 12C142.089 11.7867 142.195 11.6533 142.409 11.6C142.622 11.5467 142.729 11.4667 142.729 11.36C142.835 10.6133 143.475 10.0533 144.649 9.68C145.822 9.30667 146.862 9.12 147.769 9.12C148.675 9.12 149.129 9.25333 149.129 9.52C149.129 9.62667 148.969 9.81333 148.649 10.08C148.489 10.1333 148.222 10.3733 147.849 10.8C147.475 11.1733 147.129 11.6267 146.809 12.16L146.169 13.12C146.115 13.2267 146.035 13.36 145.929 13.52C145.875 13.6267 145.795 13.7333 145.689 13.84C145.315 14.48 144.809 15.3867 144.169 16.56C143.582 17.68 142.942 18.9333 142.249 20.32L144.329 20.08C144.489 20.08 144.542 20.1067 144.489 20.16C144.489 20.2133 144.569 20.2133 144.729 20.16C144.995 20.16 145.182 20.1333 145.289 20.08C145.395 19.9733 145.582 19.8933 145.849 19.84C146.275 19.7867 146.755 19.76 147.289 19.76C147.875 19.7067 148.329 19.68 148.649 19.68C148.862 19.68 149.129 19.68 149.449 19.68C149.769 19.68 150.009 19.7067 150.169 19.76C150.275 19.76 150.302 19.8133 150.249 19.92C150.249 19.9733 150.275 20 150.329 20C150.435 20 150.515 19.9733 150.569 19.92C150.675 19.8667 150.782 19.84 150.889 19.84C150.942 19.7867 151.022 19.7867 151.129 19.84C151.289 19.84 151.395 19.84 151.449 19.84L152.249 20.08C152.569 20.1333 152.729 20.32 152.729 20.64C152.782 20.96 152.649 21.0667 152.329 20.96C152.115 20.8533 151.929 20.8 151.769 20.8H149.769C149.395 20.8 149.049 20.8 148.729 20.8C148.409 20.8 148.089 20.8267 147.769 20.88C147.662 20.9333 147.609 20.88 147.609 20.72C147.662 20.56 147.635 20.48 147.529 20.48C147.475 20.48 147.395 20.56 147.289 20.72C147.182 20.8267 147.102 20.88 147.049 20.88L146.649 21.12C145.795 21.3333 144.889 21.5733 143.929 21.84C142.969 22.0533 142.035 22.2933 141.129 22.56C140.329 24.2133 139.555 25.7867 138.809 27.28C138.115 28.72 137.582 29.84 137.209 30.64C137.102 30.96 137.049 31.1467 137.049 31.2C137.049 31.6267 137.289 31.84 137.769 31.84C138.089 31.84 138.409 31.76 138.729 31.6L139.529 31.28C140.809 30.1067 142.142 29.12 143.529 28.32C143.582 28.32 143.609 28.32 143.609 28.32C143.662 28.2667 143.715 28.24 143.769 28.24C143.929 28.24 144.035 28.3467 144.089 28.56C144.142 28.72 144.089 28.8533 143.929 28.96C142.382 29.8133 140.942 30.9067 139.609 32.24C139.555 32.3467 139.502 32.4533 139.449 32.56C139.395 32.6667 139.315 32.7733 139.209 32.88C139.102 32.9867 138.942 33.1733 138.729 33.44C138.569 33.7067 138.489 33.8667 138.489 33.92C138.435 34.08 138.355 34.1333 138.249 34.08C138.195 34.0267 138.035 34.1067 137.769 34.32C137.715 34.3733 137.662 34.48 137.609 34.64C137.609 34.8 137.582 34.9333 137.529 35.04C137.422 35.2 137.315 35.3333 137.209 35.44C137.102 35.4933 137.049 35.5467 137.049 35.6C136.995 35.8133 136.889 35.9467 136.729 36C136.622 36 136.515 36.0533 136.409 36.16C136.355 36.16 136.329 36.1867 136.329 36.24C136.329 36.72 136.275 36.9333 136.169 36.88C136.062 36.8267 135.982 36.88 135.929 37.04C135.715 37.2533 135.555 37.36 135.449 37.36C135.129 37.4667 134.995 37.5467 135.049 37.6C135.155 37.6533 135.235 37.7067 135.289 37.76C135.395 37.76 135.315 37.84 135.049 38C134.942 38.0533 134.835 38.2133 134.729 38.48C134.622 38.6933 134.515 38.8533 134.409 38.96C134.249 39.0667 134.089 39.1467 133.929 39.2C133.769 39.2533 133.635 39.36 133.529 39.52C133.049 40 132.649 40.24 132.329 40.24ZM136.889 21.44C137.102 21.3867 137.289 21.3333 137.449 21.28C137.662 21.2267 137.875 21.1467 138.089 21.04L140.489 20.64C141.129 19.36 141.689 18.2133 142.169 17.2C142.649 16.1333 142.995 15.36 143.209 14.88C143.209 14.88 143.155 14.8533 143.049 14.8C142.995 14.6933 142.969 14.5867 142.969 14.48C142.862 14.4267 142.729 14.3467 142.569 14.24C142.462 14.1333 142.355 14.0533 142.249 14L141.529 14.72L140.649 15.92C140.649 15.9733 140.569 16.0267 140.409 16.08C140.302 16.08 140.249 16.1067 140.249 16.16C140.249 16.32 140.169 16.48 140.009 16.64C139.902 16.8 139.795 16.8533 139.689 16.8L139.369 17.6C139.369 17.76 139.289 17.8933 139.129 18L138.569 18.72C138.569 18.7733 138.542 18.8267 138.489 18.88C138.489 18.88 138.489 18.9333 138.489 19.04C138.435 19.1467 138.355 19.28 138.249 19.44C138.142 19.6 138.009 19.76 137.849 19.92C137.795 19.92 137.769 19.9467 137.769 20C137.769 20 137.742 20 137.689 20L137.449 20.48C137.235 20.5867 137.102 20.64 137.049 20.64L136.969 20.8C136.969 21.12 136.942 21.3333 136.889 21.44ZM161.894 40.24C161.574 40.24 161.414 40.0533 161.414 39.68C161.414 39.4133 161.494 39.0933 161.654 38.72C162.08 37.8133 162.56 36.5333 163.094 34.88C163.68 33.2267 164.4 31.8133 165.254 30.64C165.84 29.4667 166.374 28.32 166.854 27.2C167.387 26.0267 167.894 24.8533 168.374 23.68C168.374 23.68 168.32 23.6533 168.214 23.6C168.107 23.4933 168.054 23.3867 168.054 23.28C167.787 23.0667 167.467 22.7733 167.094 22.4C166.72 21.9733 166.694 21.5467 167.014 21.12C167.12 21.0133 167.174 20.96 167.174 20.96C167.227 20.96 167.254 20.96 167.254 20.96C167.254 20.9067 167.227 20.88 167.174 20.88C167.174 20.88 167.174 20.8533 167.174 20.8L167.094 20.72C167.04 20.72 166.987 20.72 166.934 20.72C166.934 20.6667 166.907 20.64 166.854 20.64C166.64 20.64 166.4 20.6933 166.134 20.8C165.867 20.8533 165.6 20.88 165.334 20.88C165.014 20.88 164.587 21.0133 164.054 21.28C163.52 21.4933 163.04 21.68 162.614 21.84C162.4 21.8933 162.267 21.92 162.214 21.92C162.214 21.8667 162.107 21.8933 161.894 22C161.84 22.0533 161.84 21.9733 161.894 21.76C162 21.4933 162.054 21.3067 162.054 21.2C162.054 21.1467 162.027 21.12 161.974 21.12C161.867 21.12 161.654 21.28 161.334 21.6C161.014 21.8667 160.8 22.0267 160.694 22.08C160.64 22.1333 160.614 22.2133 160.614 22.32C160.667 22.4267 160.694 22.5333 160.694 22.64C160.694 22.8 160.56 22.9867 160.294 23.2C160.027 23.36 159.84 23.4933 159.734 23.6C159.52 23.76 159.254 23.8667 158.934 23.92C158.667 23.92 158.4 24.0267 158.134 24.24C157.814 24.4533 157.654 24.6133 157.654 24.72C157.707 24.8267 157.547 25.0133 157.174 25.28C156.694 25.6533 156.027 26.2133 155.174 26.96C154.374 27.7067 153.76 28.3733 153.334 28.96C152.32 30.1867 151.387 31.6 150.534 33.2C149.734 34.8 149.334 36.0533 149.334 36.96C149.334 37.6533 149.627 38 150.214 38C150.32 38 150.427 38 150.534 38C150.64 37.9467 150.774 37.8933 150.934 37.84L153.014 36.64L153.494 36.56V36.48L153.814 36.72C153.867 36.6667 153.84 36.5867 153.734 36.48C153.68 36.32 153.68 36.24 153.734 36.24C153.787 36.24 153.814 36.2667 153.814 36.32C153.867 36.32 153.92 36.32 153.974 36.32L154.134 36.08C154.134 36.08 154.214 36.1067 154.374 36.16C154.587 36.16 154.747 36.1067 154.854 36C155.014 35.9467 155.04 35.8667 154.934 35.76C154.88 35.6533 154.8 35.5733 154.694 35.52L155.254 35.04C155.307 34.9333 155.52 34.8267 155.894 34.72C156.8 34.1333 157.547 33.44 158.134 32.64C158.774 31.7867 159.494 31.0133 160.294 30.32H160.374L161.334 29.36L161.254 29.12L162.294 27.92H162.454C162.507 27.8133 162.614 27.68 162.774 27.52C162.987 27.36 163.12 27.2267 163.174 27.12C163.28 27.0667 163.52 26.8 163.894 26.32C164.32 25.7867 164.72 25.36 165.094 25.04C165.52 24.72 165.76 24.56 165.814 24.56C165.867 24.56 165.894 24.5867 165.894 24.64C165.894 24.8 165.814 25.04 165.654 25.36C165.547 25.68 165.44 25.8933 165.334 26C164.96 26.5867 164.48 27.2533 163.894 28C163.307 28.6933 162.96 29.12 162.854 29.28C162.214 29.9733 161.44 30.9067 160.534 32.08C159.627 33.2 158.64 34.32 157.574 35.44C156.507 36.56 155.44 37.52 154.374 38.32C153.36 39.0667 152.4 39.44 151.494 39.44C150.64 39.44 149.734 39.1733 148.774 38.64C147.814 38.1067 147.334 37.0933 147.334 35.6C147.334 35.12 147.387 34.5867 147.494 34C147.654 33.36 147.894 32.6933 148.214 32C148.214 32 148.267 31.9467 148.374 31.84C148.48 31.68 148.56 31.6267 148.614 31.68C148.72 31.52 148.747 31.36 148.694 31.2C148.694 30.9867 148.694 30.8533 148.694 30.8L148.854 30.64C148.96 30.0533 149.36 29.52 150.054 29.04C150.747 28.56 151.12 28.1867 151.174 27.92C151.227 27.8667 151.254 27.7867 151.254 27.68L151.574 26.64V26.32H151.894L152.134 26L152.214 25.84C152.107 25.7867 152.134 25.7067 152.294 25.6C152.507 25.44 152.614 25.36 152.614 25.36C152.667 25.2533 152.72 25.1733 152.774 25.12C152.88 25.0667 152.96 25.0133 153.014 24.96H153.574C153.68 24.8 153.627 24.72 153.414 24.72C153.2 24.72 153.094 24.72 153.094 24.72C153.094 24.6667 153.094 24.64 153.094 24.64C153.147 24.5867 153.174 24.5333 153.174 24.48L154.054 23.76C154.32 23.5467 154.587 23.36 154.854 23.2C155.12 23.04 155.36 22.8533 155.574 22.64C155.734 22.64 155.76 22.72 155.654 22.88C155.707 22.9867 155.76 22.9867 155.814 22.88C155.92 22.7733 155.974 22.72 155.974 22.72L156.374 22.64V22.56C156.374 22.4533 156.4 22.2933 156.454 22.08C156.507 21.8667 156.534 21.7333 156.534 21.68C157.654 20.8267 158.827 20.08 160.054 19.44C161.28 18.7467 162.48 18.4 163.654 18.4C165.04 18.4 166.294 18.9333 167.414 20L167.814 20.24C167.867 20.24 167.894 20.2133 167.894 20.16C168 19.4133 168.614 18.8533 169.734 18.48C170.907 18.1067 171.947 17.92 172.854 17.92C173.814 17.92 174.294 18.0533 174.294 18.32C174.294 18.4267 174.134 18.6133 173.814 18.88C173.654 18.9867 173.387 19.2267 173.014 19.6C172.64 19.9733 172.267 20.4267 171.894 20.96C171.84 21.12 171.76 21.28 171.654 21.44C171.547 21.6 171.44 21.76 171.334 21.92C171.28 22.0267 171.2 22.16 171.094 22.32C171.04 22.4267 170.96 22.5333 170.854 22.64C169.947 24.1867 169.227 25.4933 168.694 26.56C168.16 27.6267 167.52 28.9867 166.774 30.64C166.667 30.96 166.614 31.1467 166.614 31.2C166.614 31.6267 166.854 31.84 167.334 31.84C167.654 31.84 167.974 31.76 168.294 31.6L169.094 31.28C170.374 30.1067 171.707 29.12 173.094 28.32C173.147 28.32 173.174 28.32 173.174 28.32C173.227 28.2667 173.28 28.24 173.334 28.24C173.494 28.24 173.6 28.3467 173.654 28.56C173.707 28.72 173.654 28.8533 173.494 28.96C171.947 29.8133 170.507 30.9067 169.174 32.24C169.12 32.3467 169.067 32.4533 169.014 32.56C168.96 32.6667 168.88 32.7733 168.774 32.88C168.614 32.9867 168.454 33.1733 168.294 33.44C168.134 33.7067 168.054 33.8667 168.054 33.92C168 34.08 167.92 34.1333 167.814 34.08C167.76 34.0267 167.6 34.1067 167.334 34.32C167.28 34.3733 167.227 34.48 167.174 34.64C167.174 34.8 167.147 34.9333 167.094 35.04C166.987 35.2 166.88 35.3333 166.774 35.44C166.667 35.4933 166.614 35.5467 166.614 35.6C166.56 35.8133 166.454 35.9467 166.294 36C166.187 36 166.08 36.0533 165.974 36.16C165.92 36.16 165.894 36.1867 165.894 36.24C165.894 36.72 165.84 36.9333 165.734 36.88C165.627 36.8267 165.52 36.88 165.414 37.04C165.307 37.2533 165.174 37.36 165.014 37.36C164.694 37.4667 164.56 37.5467 164.614 37.6C164.72 37.6533 164.8 37.7067 164.854 37.76C164.96 37.76 164.88 37.84 164.614 38C164.507 38.0533 164.4 38.2133 164.294 38.48C164.187 38.6933 164.08 38.8533 163.974 38.96C163.814 39.0667 163.654 39.1467 163.494 39.2C163.334 39.2533 163.2 39.36 163.094 39.52C162.614 40 162.214 40.24 161.894 40.24Z" fill="url(#paint0_linear_20_4)" />
	<defs>
		<linearGradient id="paint0_linear_20_4" x1="1" y1="25.3333" x2="111.667" y2="58.6667" gradientUnits="userSpaceOnUse">
			<stop stop-color="#F10000" />
			<stop offset="1" stop-color="#840087" />
		</linearGradient>
	</defs>
</svg>
