<svg width="148" height="148" viewBox="0 0 148 148" fill="none" xmlns="http://www.w3.org/2000/svg">
	<path d="M43.1667 129.5H104.833M83.25 43.1666V67.8333M83.25 67.8333V80.1666M83.25 67.8333L91.6983 58.1763M91.6983 58.1763L104.833 43.1666M91.6983 58.1763L104.833 80.1666M58.5833 43.1666L40.0833 70.9166H61.6667V80.1666" stroke="white" stroke-width="9.25" stroke-linecap="round" stroke-linejoin="round" />
	<path d="M12.3333 101.133V22.2C12.3333 21.2187 12.7232 20.2776 13.417 19.5837C14.1109 18.8898 15.052 18.5 16.0333 18.5H131.967C132.948 18.5 133.889 18.8898 134.583 19.5837C135.277 20.2776 135.667 21.2187 135.667 22.2V101.133C135.667 102.115 135.277 103.056 134.583 103.75C133.889 104.444 132.948 104.833 131.967 104.833H16.0333C15.052 104.833 14.1109 104.444 13.417 103.75C12.7232 103.056 12.3333 102.115 12.3333 101.133Z" stroke="white" stroke-width="9.25" />
</svg>
